<svg xmlns="http://www.w3.org/2000/svg" width="1180" height="900" viewBox="0 0 1180 900" font-family="Helvetica, Arial, sans-serif">
<rect width="1180" height="900" fill="#f8fafc"/>
<text x="24" y="28" font-size="18" font-weight="bold" fill="#0f172a">SahyogRide — Database (ER) Diagram</text>
<text x="24" y="860" font-size="10.5" fill="#64748b">PK = primary key   FK = foreign key   UQ = unique   IDX = named index/constraint</text>
<text x="24" y="878" font-size="10.5" fill="#64748b">Generated from docs/ER_DIAGRAM.md and backend/app/models.py — SahyogRide, 13 July 2026</text>
<path d="M270,100.0 C335.0,100.0 335.0,98.0 400,98.0" fill="none" stroke="#475569" stroke-width="1.4"/>
<circle cx="270" cy="100.0" r="3" fill="#475569"/>
<circle cx="400" cy="98.0" r="3" fill="#475569"/>
<rect x="267.0" y="90.0" width="136.0" height="14" fill="white" opacity="0.9"/>
<text x="335.0" y="101.0" font-size="9.5" fill="#334155" text-anchor="middle" font-style="italic">1 : *  (coordinator)</text>
<path d="M400,80.0 C400.0,80.0 400.0,458.0 400,458.0" fill="none" stroke="#475569" stroke-width="1.4"/>
<circle cx="400" cy="80.0" r="3" fill="#475569"/>
<circle cx="400" cy="458.0" r="3" fill="#475569"/>
<rect x="380.0" y="260.0" width="40.0" height="14" fill="white" opacity="0.9"/>
<text x="400.0" y="271.0" font-size="9.5" fill="#334155" text-anchor="middle" font-style="italic">1 : *</text>
<path d="M400,440.0 C370.0,440.0 370.0,618.0 340,618.0" fill="none" stroke="#475569" stroke-width="1.4"/>
<circle cx="400" cy="440.0" r="3" fill="#475569"/>
<circle cx="340" cy="618.0" r="3" fill="#475569"/>
<rect x="340.4" y="520.0" width="59.2" height="14" fill="white" opacity="0.9"/>
<text x="370.0" y="531.0" font-size="9.5" fill="#334155" text-anchor="middle" font-style="italic">1 : 0..1</text>
<path d="M80,204 C70.0,204 70.0,654.0 60,654.0" fill="none" stroke="#475569" stroke-width="1.4" stroke-dasharray="5,4"/>
<circle cx="80" cy="204" r="3" fill="#475569"/>
<circle cx="60" cy="654.0" r="3" fill="#475569"/>
<rect x="50.0" y="420.0" width="40.0" height="14" fill="white" opacity="0.9"/>
<text x="70.0" y="431.0" font-size="9.5" fill="#334155" text-anchor="middle" font-style="italic">1 : *</text>
<path d="M400,80.0 C370.0,80.0 370.0,636.0 340,636.0" fill="none" stroke="#475569" stroke-width="1.4" stroke-dasharray="5,4"/>
<circle cx="400" cy="80.0" r="3" fill="#475569"/>
<circle cx="340" cy="636.0" r="3" fill="#475569"/>
<rect x="350.0" y="349.0" width="40.0" height="14" fill="white" opacity="0.9"/>
<text x="370.0" y="360.0" font-size="9.5" fill="#334155" text-anchor="middle" font-style="italic">1 : *</text>
<path d="M680,440.0 C740.0,440.0 740.0,458.0 800,458.0" fill="none" stroke="#475569" stroke-width="1.4"/>
<circle cx="680" cy="440.0" r="3" fill="#475569"/>
<circle cx="800" cy="458.0" r="3" fill="#475569"/>
<rect x="720.0" y="440.0" width="40.0" height="14" fill="white" opacity="0.9"/>
<text x="740.0" y="451.0" font-size="9.5" fill="#334155" text-anchor="middle" font-style="italic">1 : *</text>
<path d="M270,194 C535.0,194 535.0,494.0 800,494.0" fill="none" stroke="#475569" stroke-width="1.4" stroke-dasharray="5,4"/>
<circle cx="270" cy="194" r="3" fill="#475569"/>
<circle cx="800" cy="494.0" r="3" fill="#475569"/>
<rect x="515.0" y="335.0" width="40.0" height="14" fill="white" opacity="0.9"/>
<text x="535.0" y="346.0" font-size="9.5" fill="#334155" text-anchor="middle" font-style="italic">1 : *</text>
<path d="M680,80.0 C740.0,80.0 740.0,476.0 800,476.0" fill="none" stroke="#475569" stroke-width="1.4" stroke-dasharray="5,4"/>
<circle cx="680" cy="80.0" r="3" fill="#475569"/>
<circle cx="800" cy="476.0" r="3" fill="#475569"/>
<rect x="720.0" y="269.0" width="40.0" height="14" fill="white" opacity="0.9"/>
<text x="740.0" y="280.0" font-size="9.5" fill="#334155" text-anchor="middle" font-style="italic">1 : *</text>
<g font-family="Helvetica, Arial, sans-serif">
<rect x="40" y="60" width="230" height="144" fill="#ffffff" stroke="#065f46" stroke-width="1.5" rx="4"/>
<rect x="40" y="60" width="230" height="28" fill="#065f46" rx="4"/>
<rect x="40" y="80" width="230" height="8" fill="#065f46"/>
<text x="155.0" y="79" font-size="13.5" font-weight="bold" fill="#ffffff" text-anchor="middle">users</text>
<text x="48" y="109" font-size="9.5" font-weight="bold" fill="#b45309">PK</text>
<text x="78" y="109" font-size="11" fill="#1f2937">id</text>
<text x="78" y="127" font-size="11" fill="#1f2937">name</text>
<text x="48" y="145" font-size="9.5" font-weight="bold" fill="#7c3aed">UQ</text>
<text x="78" y="145" font-size="11" fill="#1f2937">email</text>
<text x="78" y="163" font-size="11" fill="#1f2937">password_hash</text>
<text x="78" y="181" font-size="11" fill="#1f2937">role  enum(rider|coordinator|admin)</text>
<text x="78" y="199" font-size="11" fill="#1f2937">created_at</text>
<line x1="40" y1="88" x2="270" y2="88" stroke="#065f46" stroke-width="1"/>
</g>
<g font-family="Helvetica, Arial, sans-serif">
<rect x="400" y="40" width="280" height="216" fill="#ffffff" stroke="#065f46" stroke-width="1.5" rx="4"/>
<rect x="400" y="40" width="280" height="28" fill="#065f46" rx="4"/>
<rect x="400" y="60" width="280" height="8" fill="#065f46"/>
<text x="540.0" y="59" font-size="13.5" font-weight="bold" fill="#ffffff" text-anchor="middle">trips</text>
<text x="408" y="89" font-size="9.5" font-weight="bold" fill="#b45309">PK</text>
<text x="438" y="89" font-size="11" fill="#1f2937">id</text>
<text x="408" y="107" font-size="9.5" font-weight="bold" fill="#1d4ed8">FK</text>
<text x="438" y="107" font-size="11" fill="#1f2937">coordinator_id</text>
<text x="438" y="125" font-size="11" fill="#1f2937">origin</text>
<text x="438" y="143" font-size="11" fill="#1f2937">destination</text>
<text x="438" y="161" font-size="11" fill="#1f2937">departure_time</text>
<text x="438" y="179" font-size="11" fill="#1f2937">total_seats</text>
<text x="438" y="197" font-size="11" fill="#1f2937">purpose  (null)</text>
<text x="438" y="215" font-size="11" fill="#1f2937">embedding  vector(1536) (null)</text>
<text x="438" y="233" font-size="11" fill="#1f2937">ai_summary  (null)</text>
<text x="438" y="251" font-size="11" fill="#1f2937">created_at</text>
<line x1="400" y1="68" x2="680" y2="68" stroke="#065f46" stroke-width="1"/>
</g>
<g font-family="Helvetica, Arial, sans-serif">
<rect x="400" y="400" width="280" height="126" fill="#ffffff" stroke="#065f46" stroke-width="1.5" rx="4"/>
<rect x="400" y="400" width="280" height="28" fill="#065f46" rx="4"/>
<rect x="400" y="420" width="280" height="8" fill="#065f46"/>
<text x="540.0" y="419" font-size="13.5" font-weight="bold" fill="#ffffff" text-anchor="middle">seats</text>
<text x="408" y="449" font-size="9.5" font-weight="bold" fill="#b45309">PK</text>
<text x="438" y="449" font-size="11" fill="#1f2937">id</text>
<text x="408" y="467" font-size="9.5" font-weight="bold" fill="#1d4ed8">FK</text>
<text x="438" y="467" font-size="11" fill="#1f2937">trip_id</text>
<text x="438" y="485" font-size="11" fill="#1f2937">seat_number</text>
<text x="438" y="503" font-size="11" fill="#1f2937">status  enum(available|held|reserved)</text>
<text x="408" y="521" font-size="9.5" font-weight="bold" fill="#0891b2">IDX</text>
<text x="438" y="521" font-size="11" fill="#1f2937">UQ(trip_id, seat_number)</text>
<line x1="400" y1="428" x2="680" y2="428" stroke="#065f46" stroke-width="1"/>
</g>
<g font-family="Helvetica, Arial, sans-serif">
<rect x="60" y="560" width="280" height="162" fill="#ffffff" stroke="#065f46" stroke-width="1.5" rx="4"/>
<rect x="60" y="560" width="280" height="28" fill="#065f46" rx="4"/>
<rect x="60" y="580" width="280" height="8" fill="#065f46"/>
<text x="200.0" y="579" font-size="13.5" font-weight="bold" fill="#ffffff" text-anchor="middle">holds</text>
<text x="68" y="609" font-size="9.5" font-weight="bold" fill="#b45309">PK</text>
<text x="98" y="609" font-size="11" fill="#1f2937">id</text>
<text x="68" y="627" font-size="9.5" font-weight="bold" fill="#64748b">FK/UQ</text>
<text x="98" y="627" font-size="11" fill="#1f2937">seat_id</text>
<text x="68" y="645" font-size="9.5" font-weight="bold" fill="#1d4ed8">FK</text>
<text x="98" y="645" font-size="11" fill="#1f2937">trip_id</text>
<text x="68" y="663" font-size="9.5" font-weight="bold" fill="#1d4ed8">FK</text>
<text x="98" y="663" font-size="11" fill="#1f2937">rider_id</text>
<text x="98" y="681" font-size="11" fill="#1f2937">expires_at</text>
<text x="98" y="699" font-size="11" fill="#1f2937">created_at</text>
<text x="68" y="717" font-size="9.5" font-weight="bold" fill="#0891b2">IDX</text>
<text x="98" y="717" font-size="11" fill="#1f2937">UQ(trip_id, rider_id)</text>
<line x1="60" y1="588" x2="340" y2="588" stroke="#065f46" stroke-width="1"/>
</g>
<g font-family="Helvetica, Arial, sans-serif">
<rect x="800" y="400" width="320" height="234" fill="#ffffff" stroke="#065f46" stroke-width="1.5" rx="4"/>
<rect x="800" y="400" width="320" height="28" fill="#065f46" rx="4"/>
<rect x="800" y="420" width="320" height="8" fill="#065f46"/>
<text x="960.0" y="419" font-size="13.5" font-weight="bold" fill="#ffffff" text-anchor="middle">reservations</text>
<text x="808" y="449" font-size="9.5" font-weight="bold" fill="#b45309">PK</text>
<text x="838" y="449" font-size="11" fill="#1f2937">id</text>
<text x="808" y="467" font-size="9.5" font-weight="bold" fill="#1d4ed8">FK</text>
<text x="838" y="467" font-size="11" fill="#1f2937">seat_id</text>
<text x="808" y="485" font-size="9.5" font-weight="bold" fill="#1d4ed8">FK</text>
<text x="838" y="485" font-size="11" fill="#1f2937">trip_id</text>
<text x="808" y="503" font-size="9.5" font-weight="bold" fill="#1d4ed8">FK</text>
<text x="838" y="503" font-size="11" fill="#1f2937">rider_id</text>
<text x="838" y="521" font-size="11" fill="#1f2937">status  enum(confirmed|cancelled)</text>
<text x="838" y="539" font-size="11" fill="#1f2937">confirmed_at</text>
<text x="838" y="557" font-size="11" fill="#1f2937">cancelled_at  (null)</text>
<text x="838" y="575" font-size="11" fill="#1f2937">ai_urgency_label  (null)</text>
<text x="838" y="593" font-size="11" fill="#1f2937">ai_urgency_score  (null)</text>
<text x="838" y="611" font-size="11" fill="#1f2937">ai_triage_completed_at  (null)</text>
<text x="808" y="629" font-size="9.5" font-weight="bold" fill="#0891b2">IDX</text>
<text x="838" y="629" font-size="11" fill="#1f2937">UQ(seat_id) WHERE status=&#x27;confirmed&#x27;</text>
<line x1="800" y1="428" x2="1120" y2="428" stroke="#065f46" stroke-width="1"/>
</g>
</svg>